<?xml version="1.0" encoding="UTF-8"?><svg id="Layer_1" xmlns="http://www.w3.org/2000/svg" viewBox="0 0 96 96"><defs><style>.cls-1{fill:#6d6e71;}.cls-2{fill:#32b2c3;}</style></defs><path class="cls-1" d="M33.32,37.86c2.76-5.16,6.58-9.14,11.46-11.94s10.44-4.21,16.7-4.21c8.21,0,14.97,2.03,20.29,6.1,5.32,4.06,8.76,9.59,10.3,16.58h-9.14c-1.14-4.79-3.6-8.55-7.37-11.28-3.78-2.72-8.47-4.08-14.08-4.08-4.47,0-8.49,1.02-12.07,3.05-3.58,2.03-6.4,5.06-8.47,9.08-2.07,4.02-3.11,8.96-3.11,14.81s1.04,10.81,3.11,14.87c2.07,4.06,4.9,7.11,8.47,9.14,3.57,2.03,7.6,3.05,12.07,3.05,5.61,0,10.3-1.36,14.08-4.08,3.78-2.72,6.24-6.52,7.37-11.4h9.14c-1.54,6.83-5,12.31-10.36,16.46-5.36,4.14-12.11,6.22-20.23,6.22-6.26,0-11.82-1.4-16.7-4.21-4.88-2.8-8.7-6.78-11.46-11.94-2.76-5.16-4.14-11.19-4.14-18.1s1.38-12.94,4.14-18.1Z"/><path class="cls-2" d="M9.68,20.43c2.82-5.17,6.76-9.15,11.81-11.93,5.05-2.78,10.84-4.18,17.36-4.18,8.35,0,15.34,2.19,20.94,6.56,5.61,4.38,9.29,10.54,11.04,18.5h-21.72c-1.83-5.09-5.37-7.64-10.62-7.64-3.74,0-6.72,1.45-8.95,4.36-2.23,2.9-3.34,7.06-3.34,12.47s1.11,9.57,3.34,12.47c2.23,2.91,5.21,4.36,8.95,4.36,5.25,0,8.79-2.55,10.62-7.64h21.72c-1.75,7.8-5.45,13.92-11.1,18.38-5.65,4.46-12.61,6.68-20.88,6.68-6.52,0-12.31-1.39-17.36-4.18-5.05-2.78-8.99-6.76-11.81-11.93-2.82-5.17-4.24-11.22-4.24-18.14s1.41-12.97,4.24-18.14Z"/></svg>